<svg id="Flat" height="512" viewBox="0 0 512 512" width="512" xmlns="http://www.w3.org/2000/svg"><path d="m232 40v64a15.99431 15.99431 0 0 1 -8 13.86v26.14a15.99478 15.99478 0 0 1 -23.8999 13.91.46765.46765 0 0 1 -.1001-.05v42.14h-32v-160a16 16 0 1 1 32 0 16 16 0 1 1 32 0z" fill="#eedc9a"/><rect fill="#f4d866" height="64" rx="16" width="32" x="136" y="40"/><path d="m168 56v32a15.99739 15.99739 0 0 1 -30.58008 6.58 15.733 15.733 0 0 0 6.58008 1.42 15.99555 15.99555 0 0 0 16-16v-32a15.73469 15.73469 0 0 0 -1.41992-6.58 15.72587 15.72587 0 0 1 4.74 3.26 15.9873 15.9873 0 0 1 4.67992 11.32z" fill="#eed15a"/><rect fill="#f4d866" height="96" rx="16" width="32" x="200" y="24"/><rect fill="#f4d866" height="96" rx="16" width="32" x="168" y="24"/><path d="m232 40v64a15.99739 15.99739 0 0 1 -30.58008 6.58 15.733 15.733 0 0 0 6.58008 1.42 15.99555 15.99555 0 0 0 16-16v-64a15.73469 15.73469 0 0 0 -1.41992-6.58 15.72587 15.72587 0 0 1 4.74 3.26 15.9873 15.9873 0 0 1 4.67992 11.32z" fill="#eed15a"/><path d="m200 40v64a15.99739 15.99739 0 0 1 -30.58008 6.58 15.733 15.733 0 0 0 6.58008 1.42 15.99555 15.99555 0 0 0 16-16v-64a15.73469 15.73469 0 0 0 -1.41992-6.58 15.72587 15.72587 0 0 1 4.74 3.26 15.9873 15.9873 0 0 1 4.67992 11.32z" fill="#eed15a"/><path d="m248 56h208v32h-208z" fill="#ad7d4d"/><rect fill="#eebe33" height="32" rx="16" width="256" x="96" y="200"/><path d="m380.12988 380.27a121.04926 121.04926 0 0 1 -20.66015 67.73q-2.78981 4.14-5.96 8.11l-25.50973 31.89h-208l-25.51-31.89q-3.16517-3.96-5.96-8.11a121.47248 121.47248 0 0 1 18.15991-156.78 44.45668 44.45668 0 0 0 10.10009-51.22 44.94246 44.94246 0 0 0 -4.79-8h224a44.32 44.32 0 0 0 -6.83984 40 44.31922 44.31922 0 0 0 12.1499 19.22 121.24315 121.24315 0 0 1 38.81982 89.05z" fill="#eebe33"/><path d="m380.12988 380.27a121.04926 121.04926 0 0 1 -20.66015 67.73h-270.93973a121.47248 121.47248 0 0 1 18.15991-156.78 44.32207 44.32207 0 0 0 12.15018-19.22h210.32007a44.31922 44.31922 0 0 0 12.1499 19.22 121.24315 121.24315 0 0 1 38.81982 89.05z" fill="#d3e1e9"/><path d="m216 360h-24l-16-16h-24v24h-24v24l16 16h24l16 16h24v-24h24v-24z" fill="#eebe33"/><path d="m237.65723 370.34326-16-16a8.00076 8.00076 0 0 0 -5.65723-2.34326h-20.686l-13.65673-13.65674a8.00076 8.00076 0 0 0 -5.65727-2.34326h-24a8.00008 8.00008 0 0 0 -8 8v16h-16a8.00008 8.00008 0 0 0 -8 8v24a8.00035 8.00035 0 0 0 2.34277 5.65674l16 16a8.00076 8.00076 0 0 0 5.65723 2.34326h20.686l13.65673 13.65674a8.00076 8.00076 0 0 0 5.65727 2.34326h24a8.00008 8.00008 0 0 0 8-8v-16h16a8.00008 8.00008 0 0 0 8-8v-24a8.00035 8.00035 0 0 0 -2.34277-5.65674zm-64.97071-18.34326 11.31348 11.31348v12.68652h-12.686l-11.314-11.314v-12.686zm-36.68652 36.68652v-12.68652h12.686l11.314 11.314v12.686h-12.68652zm51.31348 27.31348-11.31348-11.31348v-12.68652h12.686l11.314 11.314v12.686zm36.68652-24h-12.686l-11.314-11.314v-12.686h12.68652l11.31348 11.31348z" fill="#efa702"/><path d="m256 328h-16v-13.95215a20.81662 20.81662 0 0 0 -17.88867-10.04785h-6.11133v-16h6.11133a36.74411 36.74411 0 0 1 33.04394 20.42188 7.99781 7.99781 0 0 1 .84473 3.57812z" fill="#395166"/><circle cx="248" cy="328" fill="#ad7d4d" r="16"/><path d="m280 336 4.59715-18.38861a17.96967 17.96967 0 0 1 17.43315-13.61139 17.96968 17.96968 0 0 1 17.9697 17.96967 17.96967 17.96967 0 0 1 -13.61139 17.43315l-18.38861 4.59718z" fill="#8acce7"/><path d="m312 387.1v4.9h-4.8999a63.87022 63.87022 0 0 1 -35.54-10.87 65.07713 65.07713 0 0 1 -5.3501-4.03 63.77539 63.77539 0 0 1 -18.21-25.1l24-24a63.77618 63.77618 0 0 1 25.1001 18.21 64.35962 64.35962 0 0 1 3.93994 5.22c.02978.04.06006.09009.08984.13013a63.79287 63.79287 0 0 1 10.87012 35.53987z" fill="#eebe33"/><path d="m297.1001 346.21-30.8901 30.89a63.55439 63.55439 0 0 1 -10.87988-11.74l30.02978-30.03a63.56468 63.56468 0 0 1 11.7402 10.88z" fill="#395166"/><path d="m308.62012 366.68994-21.91992 21.93006a63.76085 63.76085 0 0 1 -15.14014-7.49l29.56982-29.56994a63.89865 63.89865 0 0 1 7.49024 15.12988z" fill="#395166"/><rect fill="#ad7d4d" height="64" rx="16" width="32" x="232" y="40"/><path d="m264 56v32a15.99739 15.99739 0 0 1 -30.58008 6.58 15.733 15.733 0 0 0 6.58008 1.42 15.99555 15.99555 0 0 0 16-16v-32a15.73469 15.73469 0 0 0 -1.41992-6.58 15.72164 15.72164 0 0 1 4.73974 3.26 15.98647 15.98647 0 0 1 4.68018 11.32z" fill="#966342"/><path d="m224 117.84v8.78a23.98212 23.98212 0 0 1 -32-22.62v-8h8v8a16.02119 16.02119 0 0 0 16 16 15.857 15.857 0 0 0 8-2.16z" fill="#eebe33"/><path d="m200.1001 157.91a.46765.46765 0 0 1 -.1001-.05v8.76a24.02166 24.02166 0 0 1 -16-22.62v-8h8v8a16.00252 16.00252 0 0 0 8 13.85c.03.02.07007.04.1001.06z" fill="#eebe33"/><path d="m336 232a44.94246 44.94246 0 0 0 -4.79 8h-214.42a44.94246 44.94246 0 0 0 -4.79-8z" fill="#e88604"/><g fill="#eebe33"><path d="m192 64h8v16h-8z"/><path d="m200.1001 157.91a.46765.46765 0 0 1 -.1001-.05v8.76a24.02166 24.02166 0 0 1 -16-22.62v-8h8v8a16.00252 16.00252 0 0 0 8 13.85c.03.02.07007.04.1001.06z"/></g></svg>