<svg id="Capa_1" enable-background="new 0 0 512 512" height="512" viewBox="0 0 512 512" width="512" xmlns="http://www.w3.org/2000/svg"><g><g><g fill="#873f30"><g><path d="m312.296 116.951c-2.788 0-5.472-1.536-6.808-4.197l-21.84-43.493c-7.46-14.855-6.243-32.592 3.176-46.288l13.531-19.674c2.382-3.464 7.123-4.339 10.585-1.958 3.464 2.383 4.34 7.121 1.958 10.585l-13.531 19.674c-6.274 9.122-7.084 20.936-2.116 30.831l21.84 43.493c1.887 3.757.371 8.332-3.387 10.218-1.094.548-2.26.809-3.408.809z"/><path d="m309.019 33.909c-.751 0-1.514-.112-2.27-.347l-10.59-3.304c-4.013-1.252-6.251-5.52-4.998-9.533 1.252-4.013 5.52-6.251 9.533-4.999l10.59 3.304c4.013 1.252 6.251 5.52 4.998 9.533-1.015 3.257-4.021 5.346-7.263 5.346z"/></g><g><path d="m463.19 233.199c-6.984 0-13.99-1.603-20.453-4.848l-43.493-21.841c-3.756-1.887-5.273-6.461-3.386-10.218s6.463-5.272 10.218-3.386l43.492 21.841c9.892 4.968 21.707 4.158 30.831-2.117l19.674-13.531c3.464-2.382 8.203-1.504 10.585 1.958 2.382 3.464 1.505 8.203-1.958 10.585l-19.674 13.531c-7.738 5.322-16.768 8.026-25.836 8.026z"/><path d="m489.005 221.184c-3.242 0-6.247-2.088-7.264-5.346l-3.305-10.59c-1.253-4.013.985-8.281 4.998-9.533 4.015-1.253 8.281.985 9.533 4.998l3.305 10.59c1.253 4.013-.985 8.281-4.998 9.533-.754.236-1.517.348-2.269.348z"/></g></g><g><g><path d="m398.008 82.968c-1.236 0-2.491-.302-3.651-.938-3.672-2.012-5.027-6.611-3.04-10.29.581-1.105 12.626-24.884-5.576-60.547-1.911-3.744-.424-8.329 3.32-10.24s8.328-.426 10.24 3.319c22.095 43.293 6.081 73.477 5.388 74.741-1.384 2.526-3.991 3.955-6.681 3.955z" fill="#433f43"/></g><g><path d="m504.259 127.09c-1.165 0-2.346-.268-3.454-.833-35.754-18.246-59.558-6.097-60.555-5.571-3.682 2.021-8.286.657-10.307-3.031-2.021-3.686-.645-8.326 3.042-10.346 1.264-.693 31.447-16.708 74.74 5.389 3.744 1.911 5.231 6.496 3.32 10.24-1.346 2.635-4.017 4.152-6.786 4.152z" fill="#433f43"/></g></g><ellipse cx="382.966" cy="127.511" fill="#7a6e79" rx="55.098" ry="65.42" transform="matrix(.707 -.707 .707 .707 22.004 308.145)"/><path d="m429.219 173.77c-21.517 21.517-59.662 18.251-85.215-7.302-2.333-2.333-4.473-4.76-6.433-7.28 22.156 9.922 46.911 7.481 62.707-8.314 19.557-19.557 18.638-52.856-.876-77.942 8.034 3.597 15.723 8.817 22.522 15.616 25.553 25.553 28.812 63.705 7.295 85.222z" fill="#685e67"/><g fill="#fca62f"><path d="m176.61 440.91c1.13 1.59 2.24 3.13 3.33 4.65-33.81 4.36-65.54-3.91-87.57-25.94-21.93-21.93-30.22-53.47-25.98-87.12 1.54.94 3.1 1.91 4.7 2.89 18.68 14.55 37.47 31.24 55.87 49.64 18.41 18.41 35.1 37.2 49.65 55.88z"/><path d="m267.82 399.9c.9 1.35 1.84 2.73 2.83 4.15-18.69 15.54-39.07 26.98-59.52 34.07-.58-1.53-1.17-3.08-1.78-4.67-17.03-23.14-37.92-47.24-60.74-70.06s-46.92-43.71-70.05-60.74c-1.62-.52-3.21-1.02-4.77-1.51 7.15-20.74 18.77-41.41 34.62-60.33 1.21 1.11 2.44 2.23 3.69 3.37 26.95 17.61 56.96 42.51 85.08 70.63 28.13 28.13 53.03 58.14 70.64 85.09z"/><path d="m336.9 301.17c-6.59 27.77-21.37 56.17-43.73 81.14-1.01-1.39-2.01-2.76-3.02-4.11-18.66-27.64-43.25-56.97-71.32-85.04-28.06-28.06-57.39-52.65-85.03-71.31-1.45-.96-2.88-1.92-4.31-2.86 25.01-22.45 53.48-37.28 81.34-43.89 42.02 42.02 84.05 84.04 126.07 126.07z"/></g><path d="m285.067 390.896c-61.142 61.142-147.419 74-192.693 28.726-5.334-5.334-9.865-11.243-13.605-17.612 47.658 27.957 121.141 11.595 175.075-42.338s70.295-127.416 42.338-175.075c6.368 3.741 12.277 8.271 17.612 13.605 45.273 45.275 32.415 131.552-28.727 192.694z" fill="#fb9927"/><g><g><path d="m217.277 435.855c-14.366 5.607-28.869 9.068-42.927 10.303-14.625-18.99-31.971-38.634-50.925-57.588-18.947-18.947-38.59-36.293-57.58-50.918 1.235-14.058 4.696-28.56 10.303-42.927 24.841 17.762 51.076 40.206 75.996 65.126 24.92 24.921 47.371 51.162 65.133 76.004z" fill="#685e67"/></g><path d="m191.294 402.491c9.448 11.229 18.164 22.443 25.983 33.364-14.366 5.607-28.869 9.068-42.927 10.303-8.056-10.454-16.922-21.101-26.442-31.727 14.273-1.752 28.919-5.758 43.386-11.94z" fill="#554e55"/><g><path d="m285.067 390.896c-5.93 5.93-12.098 11.408-18.437 16.413-17.561-27.885-43.3-59.282-72.981-88.962-29.673-29.673-61.07-55.412-88.955-72.973 5.004-6.34 10.482-12.507 16.413-18.437 3.999-3.999 8.106-7.79 12.299-11.365 28.532 18.882 59.662 44.758 88.962 74.058 29.307 29.307 55.182 60.438 74.065 88.97-3.576 4.19-7.367 8.297-11.366 12.296z" fill="#685e67"/></g><g><path d="m329.128 325.368c-17.008-24.791-39.675-51.65-65.263-77.238-25.581-25.581-52.44-48.247-77.231-65.255 47.507-19.292 96.645-15.185 127.158 15.328s34.621 79.65 15.336 127.165z" fill="#685e67"/></g></g><g><g><g><path d="m382.653 211.24s-105.573-12.487-142.03 121.166 115.21 222.809 141.186 157.943 14.23-226.274.844-279.109z" fill="#f1faff"/><path d="m381.811 490.349c-11.559 28.863-47.993 27.239-81.676 4.76 19.891 3.41 36.809-2.73 44.025-20.744 23.392-58.435 16.187-195.218 4.739-260.392 19.668-4.394 33.754-2.73 33.754-2.73 13.387 52.834 25.129 214.236-.842 279.106z" fill="#c9f0fd"/><path d="m285.067 390.896c-12.852 12.852-26.816 23.57-41.283 32.064-9.606-26.22-12.32-56.977-3.159-90.549 19.083-69.972 57.121-99.897 89.027-112.519 24.763 47.694 7.833 118.586-44.585 171.004z" fill="#ffd496"/><path d="m285.067 390.896c-12.852 12.852-26.816 23.571-41.283 32.064-5.227-14.273-8.422-29.889-8.745-46.581 6.469-5.09 12.758-10.662 18.803-16.707 38.72-38.72 58.076-87.512 55.57-129.592 6.864-4.265 13.677-7.589 20.239-10.188 24.764 47.694 7.834 118.586-44.584 171.004z" fill="#fcc16d"/><path d="m329.128 325.368c-14.352-20.914-32.732-43.315-53.51-65.155 17.073-21.194 36.48-33.378 54.026-40.313 15.351 29.551 14.684 68.012-.516 105.468z" fill="#7a6e79"/><path d="m300.338 287.804c7.079-19.6 10.173-39.308 9.075-57.738 6.864-4.25 13.677-7.574 20.232-10.166 15.35 29.551 14.682 68.012-.517 105.468-8.335-12.155-18.042-24.806-28.79-37.564z" fill="#685e67"/><path d="m285.067 390.896c-5.93 5.93-12.098 11.408-18.437 16.413-8.637-13.706-19.234-28.266-31.339-43.056.632-10.281 2.348-20.914 5.334-31.842 1.694-6.232 3.547-12.148 5.535-17.755 19.493 21.56 36.688 43.422 50.272 63.942-3.575 4.192-7.366 8.299-11.365 12.298z" fill="#7a6e79"/><path d="m285.067 390.896c-5.93 5.93-12.098 11.408-18.437 16.413-7.23-11.48-15.845-23.556-25.559-35.869 4.358-3.698 8.623-7.618 12.772-11.767 5.665-5.665 10.913-11.545 15.738-17.59 9.987 12.414 19.019 24.691 26.852 36.516-3.576 4.191-7.367 8.298-11.366 12.297z" fill="#685e67"/></g></g><g><g><path d="m300.758 129.345s12.487 105.573-121.166 142.03-222.809-115.21-157.943-141.186 226.274-14.23 279.109-.844z" fill="#f1faff"/><path d="m292.11 182.35c-12.622 31.906-42.546 69.944-112.519 89.027-33.572 9.161-64.329 6.447-90.549-3.159 8.494-14.467 19.213-28.431 32.064-41.283 52.426-52.425 123.317-69.355 171.004-44.585z" fill="#ffd496"/><g fill="#7a6e79"><path d="m133.405 215.57c20.519 13.584 42.381 30.779 63.942 50.272-5.607 1.989-11.523 3.841-17.755 5.535-10.927 2.987-21.56 4.703-31.842 5.334-14.776-12.09-29.343-22.695-43.056-31.339 5.004-6.34 10.482-12.507 16.413-18.437 3.999-3.999 8.105-7.789 12.298-11.365z"/><path d="m251.797 236.377c-21.847-20.771-44.241-39.143-65.162-53.502 37.449-15.206 75.917-15.881 105.468-.517-6.935 17.546-19.112 36.946-40.306 54.019z"/></g></g></g></g><g><ellipse cx="328.679" cy="183.319" fill="#9ce6fb" rx="65.591" ry="77.879" transform="matrix(.707 -.707 .707 .707 -33.359 286.104)"/><path d="m383.744 238.387c-25.617 25.617-71.035 21.726-101.448-8.687-12.134-12.134-20.045-26.651-23.542-41.347 1.666 1.967 3.439 3.898 5.306 5.765 30.413 30.413 75.831 34.304 101.441 8.694 15.407-15.407 20.139-37.973 14.847-60.122 25.487 30.154 27.44 71.652 3.396 95.697z" fill="#68dbf9"/></g><path d="m312.742 148.943c-4.124 0-7.513-3.295-7.607-7.44-.095-4.203 3.235-7.686 7.438-7.781l9.322-.211c.058-.001.117-.002.174-.002 4.124 0 7.513 3.295 7.607 7.44.095 4.203-3.235 7.686-7.438 7.781l-9.322.211c-.058.002-.117.002-.174.002z" fill="#68dbf9"/><path d="m346.62 179.073c-4.124 0-7.513-3.295-7.607-7.44-.095-4.203 3.235-7.686 7.438-7.781l9.322-.211c.058-.001.117-.002.174-.002 4.124 0 7.513 3.295 7.607 7.44.095 4.203-3.235 7.686-7.438 7.781l-9.322.211c-.058.001-.116.002-.174.002z" fill="#68dbf9"/><path d="m312.889 188.347c-4.124 0-7.513-3.295-7.607-7.44-.095-4.203 3.235-7.687 7.438-7.781l9.323-.211c4.253-.101 7.687 3.236 7.781 7.438.095 4.203-3.235 7.686-7.438 7.781l-9.323.211c-.058.001-.117.002-.174.002z" fill="#68dbf9"/></g></g></svg>