<?xml version="1.0" encoding="iso-8859-1"?>
<!-- Generator: Adobe Illustrator 19.0.0, SVG Export Plug-In . SVG Version: 6.00 Build 0)  -->
<svg version="1.1" id="Capa_1" xmlns="http://www.w3.org/2000/svg" xmlns:xlink="http://www.w3.org/1999/xlink" x="0px" y="0px"
	 viewBox="0 0 393.17 393.17" style="enable-background:new 0 0 393.17 393.17;" xml:space="preserve">
<path style="fill:#FFD04D;" d="M207.254,321.005h-21.16c-17.24,0-50.52,0-79.52-1.44h-1.52l-1-0.44c-9.2-0.48-17.4-1.04-24.28-1.68
	c-7.48-0.68-13.72-1.48-18.56-2.4l-1.4,0.32l-1.88-0.48c-2.952-0.66-5.7-2.036-8-4l-2.96-2.64c-10.04-8.96-15.76-15.28-16.6-40.68
	c-0.072-10.096-2.008-20.092-5.72-29.48c-2.056-4.556-3.012-9.528-2.8-14.52c0.132-1.5,0.4-2.988,0.8-4.44
	c0.24-0.84,0.52-1.8,0.84-2.84c-3.992-0.592-7.636-2.592-10.28-5.64c-3.064-4.016-5.428-8.52-7-13.32l-4.36-11l30.72,0.24l5.16-0.68
	c12.764-23.684,26.772-46.676,41.96-68.88c25.48-36.24,37.2-41.12,45.32-41.12h143.32c8,0,20,4.88,45.32,41.12
	c15.18,22.204,29.172,45.196,41.92,68.88l5.16,0.68l30.72-0.24l-4.24,10.96c-1.568,4.804-3.936,9.304-7,13.32
	c-2.632,3.044-6.264,5.044-10.24,5.64c0.32,1.04,0.6,1.96,0.84,2.84c0.392,1.456,0.66,2.94,0.8,4.44
	c0.212,4.992-0.744,9.964-2.8,14.52c-3.708,9.416-5.632,19.44-5.68,29.56c-0.84,25.4-6.56,31.72-16.64,40.72l-3,2.68
	c-2.3,1.968-5.048,3.34-8,4l-1.84,0.48l-1.44-0.32c-4.8,0.92-11.04,1.72-18.56,2.4c-6.84,0.64-15,1.2-24.28,1.68l0,0l-1,0.44h-1.56
	C257.694,320.685,224.654,321.005,207.254,321.005z"/>
<g>
	<path style="fill:#FFFFFF;" d="M313.894,276.685c-14.536-0.188-26.168-12.12-25.98-26.656s12.12-26.168,26.656-25.98
		s26.168,12.12,25.98,26.656c-0.088,6.956-2.928,13.592-7.896,18.46C327.662,274.089,320.902,276.797,313.894,276.685z"/>
	<path style="fill:#FFFFFF;" d="M79.414,276.685c-14.536,0.012-26.328-11.76-26.344-26.296
		c-0.012-14.536,11.76-26.328,26.296-26.344s26.328,11.76,26.344,26.296c0.004,6.984-2.764,13.68-7.696,18.624
		C93.094,273.917,86.394,276.697,79.414,276.685z"/>
</g>
<path style="fill:#73DDCD;" d="M189.414,219.125L189.414,219.125c-18.72,0-37.04-0.92-53.4-2.2c-16.336-1.088-32.6-3.08-48.72-5.96
	c-12.64-2.52-26.04-6.08-25.2-16.76c1.08-13.84,19-45.36,34.96-66.64c24.68-32.88,36.52-32.88,40.44-32.88h120
	c4,0,15.72,0,40.44,32.88c16,21.28,33.88,52.8,34.96,66.6v0.36c0.56,9.08-5.24,17-73.96,22.4c-18.84,1.48-40,2.24-61.4,2.24
	L189.414,219.125z"/>
<path style="fill:#FFD04D;" d="M147.414,80.285v-27.6c-0.088-5.192,4.048-9.472,9.236-9.56c0,0,0,0,0.004,0h81.4
	c5.192,0,9.4,4.208,9.4,9.4c0,0.052,0,0.108,0,0.16v27.6H147.414z"/>
<g>
	<path style="fill:#7A5E47;" d="M70.254,350.245c-6.22-0.02-11.26-5.06-11.28-11.28v-28.6l9.08,1.28c3.44,0.48,7.4,0.92,12,1.36
		c5.72,0.52,12,1,19.04,1.4l7.52,0.44v24c-0.02,6.22-5.06,11.26-11.28,11.28L70.254,350.245z"/>
	<path style="fill:#7A5E47;" d="M297.854,350.245c-3.004,0.012-5.888-1.184-8-3.32l-0.6-0.6c-1.76-2.048-2.728-4.66-2.72-7.36v-24
		l7.52-0.44c6.88-0.4,13.32-0.84,19.04-1.4c4.72-0.44,8.68-0.88,12-1.36l9.12-1.28v28.6c-0.02,6.22-5.06,11.26-11.28,11.28
		L297.854,350.245z"/>
</g>
<g>
	<path style="fill:#2B1B19;" d="M79.134,280.685c16.592,0,30.04-13.448,30.044-30.036c0-16.592-13.448-30.04-30.036-30.044
		c-16.592,0-30.04,13.448-30.044,30.036c0,7.968,3.164,15.608,8.796,21.244C63.526,277.517,71.166,280.685,79.134,280.685z
		 M66.134,237.965c7.236-7.136,18.884-7.056,26.02,0.18s7.056,18.884-0.18,26.02s-18.884,7.056-26.02-0.18
		c-3.42-3.468-5.328-8.148-5.3-13.02C60.682,246.077,62.654,241.397,66.134,237.965z"/>
	<path style="fill:#2B1B19;" d="M293.334,229.765c-11.552,11.876-11.292,30.868,0.584,42.424
		c11.876,11.552,30.868,11.292,42.424-0.584s11.292-30.868-0.584-42.424c-5.664-5.512-13.28-8.564-21.184-8.496
		C306.566,220.757,298.918,224.025,293.334,229.765z M332.654,250.965c0.004,10.14-8.216,18.364-18.356,18.364
		c-10.14,0.004-18.364-8.216-18.364-18.356s8.216-18.364,18.356-18.364c4.86,0,9.524,1.924,12.964,5.356
		C330.71,241.409,332.654,246.085,332.654,250.965z"/>
	<path style="fill:#2B1B19;" d="M135.694,220.685c19.04,1.48,103.28,1.48,122.32,0c44.84-3.48,78.64-12,77.52-26.64
		c-0.96-12-17.24-44-36-68.76c-14.4-19.2-30.64-34.52-43.44-34.52h-118.64c-12.8,0-29.04,15.32-43.44,34.52
		c-18.6,24.76-34.92,56.72-36,68.76C56.654,208.685,90.854,217.205,135.694,220.685z M103.294,132.205
		c12.44-16.6,25.56-29.8,34.16-29.8h118.8c8.6,0,21.72,13.24,34.16,29.8c17.48,23.44,32.72,52.48,33.52,62.88
		c0.48,6.28-28.56,11.2-66.84,14.2c-18.64,1.48-101.84,1.48-120.48,0c-38.28-3-67.36-8-66.84-14.2
		C70.574,184.605,85.774,155.485,103.294,132.205z"/>
	<path style="fill:#2B1B19;" d="M0.174,192.685v0.84c2.028,6.956,5.252,13.504,9.52,19.36c2.236,2.752,5.204,4.816,8.56,5.96
		c-0.372,1.472-0.628,2.968-0.76,4.48c-0.304,5.5,0.74,10.992,3.04,16c3.568,9.088,5.424,18.756,5.48,28.52
		c0.96,28.32,7.2,33.88,17.88,43.44l2.92,2.6c2.392,1.696,5.12,2.856,8,3.4v22.08c0.02,8.232,6.688,14.9,14.92,14.92h25.52
		c8.232-0.02,14.9-6.688,14.92-14.92v-16c40.72,2,132.6,2,173.32,0v16c0.02,8.232,6.688,14.9,14.92,14.92h25.32
		c8.232-0.02,14.9-6.688,14.92-14.92v-21.72c2.88-0.544,5.608-1.704,8-3.4l2.92-2.6c10.72-9.56,16.96-15.12,17.88-43.44
		c-0.036-9.744,1.728-19.412,5.2-28.52c2.3-5.008,3.344-10.5,3.04-16c-0.132-1.512-0.388-3.008-0.76-4.48
		c3.356-1.144,6.324-3.208,8.56-5.96c4.268-5.856,7.492-12.404,9.52-19.36v-0.84l0,0c0.884-4.568-2.08-8.996-6.64-9.92h-28
		c-12.54-23.468-26.264-46.284-41.12-68.36c-17.08-24.28-34.6-42.84-48.6-42.84h-16v-20c-0.02-7.192-5.848-13.02-13.04-13.04h-85.72
		c-7.224-0.088-13.152,5.696-13.24,12.92c0,0.068,0,0.136,0,0.2v20h-16c-13.84,0-31.36,18.6-48.44,42.84
		c-14.964,22.044-28.792,44.832-41.44,68.28h-28c-4.412,0.908-7.344,5.104-6.68,9.56H0.174z M98.574,339.445
		c-0.02,1.804-1.476,3.26-3.28,3.28h-25.36c-1.804-0.02-3.26-1.476-3.28-3.28v-19.24c3.72,0.52,8,1,12.52,1.4
		c6.04,0.56,12.56,1.04,19.4,1.4V339.445z M327.094,339.445c-0.02,1.804-1.476,3.26-3.28,3.28h-25.36
		c-1.804-0.02-3.26-1.476-3.28-3.28v-16.4c6.84-0.4,13.36-0.88,19.4-1.4c4.6-0.44,8.8-0.88,12.52-1.4L327.094,339.445z
		 M152.654,52.085c0.02-0.764,0.636-1.38,1.4-1.4h85.76c0.764,0.02,1.38,0.636,1.4,1.4v20h-88.56V52.085z M32.654,194.685l9.76-1.28
		c13.268-24.744,27.824-48.776,43.6-72c14.64-21.36,29.6-37.84,38.64-37.84h144c9.32,0,24,16.44,38.92,37.88
		c15.776,23.224,30.332,47.256,43.6,72l9.76,1.28h19.72c-1.292,3.964-3.196,7.704-5.64,11.08c-1.96,2.132-4.744,3.312-7.64,3.24
		l-7.68,0.56l2.64,7.24c0.596,1.556,1.104,3.148,1.52,4.76c0.356,1,0.624,2.032,0.8,3.08c0.108,3.848-0.688,7.672-2.32,11.16
		c-4.028,10.26-6.132,21.176-6.2,32.2c-0.76,23.32-5.64,27.68-14.04,35.16l-3,2.72c-1.452,0.98-3.084,1.66-4.8,2
		c-6.96,1.88-42.44,4.32-47.2,4.52c-40.56,1.68-139.64,1.68-180,0c-15.8-0.676-31.556-2.184-47.2-4.52c-1.716-0.34-3.348-1.02-4.8-2
		l-3-2.72c-8.36-7.48-13.24-12-14.04-35.16c-0.068-11.024-2.172-21.94-6.2-32.2c-1.756-3.46-2.676-7.28-2.68-11.16
		c0.096-1.04,0.284-2.072,0.56-3.08c0.36-1.32,0.88-2.92,1.52-4.76l2.64-7.24l-7.64-0.92c-2.896,0.072-5.68-1.108-7.64-3.24
		c-2.54-3.296-4.552-6.964-5.96-10.88L32.654,194.685z"/>
	<path style="fill:#2B1B19;" d="M145.734,260.685h102.2c3.956,0,7.16,3.204,7.16,7.16l0,0l0,0c0,3.956-3.204,7.16-7.16,7.16l0,0
		h-102.2c-3.956,0-7.16-3.204-7.16-7.16l0,0l0,0C138.574,263.889,141.778,260.685,145.734,260.685L145.734,260.685z"/>
	<path style="fill:#2B1B19;" d="M145.734,286.685h102.2c3.956,0,7.16,3.204,7.16,7.16l0,0l0,0c0,3.956-3.204,7.16-7.16,7.16l0,0
		h-102.2c-3.956,0-7.16-3.204-7.16-7.16l0,0l0,0C138.574,289.889,141.778,286.685,145.734,286.685L145.734,286.685z"/>
</g>
<g>
</g>
<g>
</g>
<g>
</g>
<g>
</g>
<g>
</g>
<g>
</g>
<g>
</g>
<g>
</g>
<g>
</g>
<g>
</g>
<g>
</g>
<g>
</g>
<g>
</g>
<g>
</g>
<g>
</g>
</svg>
